<svg width="37" height="9" viewBox="0 0 37 9" fill="none" xmlns="http://www.w3.org/2000/svg">
<rect width="37" height="9" rx="3" fill="#D9D9D9"/>
<path d="M13.536 5.635L13.096 4.4325C13.0744 4.37917 13.0519 4.31583 13.0285 4.2425C13.0052 4.16917 12.9819 4.09 12.9585 4.005C12.9369 4.09 12.9144 4.17 12.891 4.245C12.8677 4.31833 12.8452 4.3825 12.8235 4.4375L12.386 5.635H13.536ZM14.7235 7H14.2035C14.1452 7 14.0977 6.98583 14.061 6.9575C14.0244 6.9275 13.9969 6.89083 13.9785 6.8475L13.7085 6.11H12.211L11.941 6.8475C11.9277 6.88583 11.9019 6.92083 11.8635 6.9525C11.8252 6.98417 11.7777 7 11.721 7H11.196L12.6185 3.385H13.3035L14.7235 7ZM15.6128 6.335C15.6828 6.42 15.7587 6.48 15.8403 6.515C15.9237 6.55 16.0137 6.5675 16.1103 6.5675C16.2037 6.5675 16.2878 6.55 16.3628 6.515C16.4378 6.48 16.5012 6.42667 16.5528 6.355C16.6062 6.28333 16.647 6.19333 16.6753 6.085C16.7037 5.975 16.7178 5.84583 16.7178 5.6975C16.7178 5.5475 16.7053 5.42083 16.6803 5.3175C16.657 5.2125 16.6228 5.1275 16.5778 5.0625C16.5328 4.9975 16.4778 4.95 16.4128 4.92C16.3495 4.89 16.277 4.875 16.1953 4.875C16.067 4.875 15.9578 4.9025 15.8678 4.9575C15.7778 5.01083 15.6928 5.08667 15.6128 5.185V6.335ZM15.5803 4.785C15.6853 4.66667 15.8045 4.57083 15.9378 4.4975C16.0712 4.42417 16.2278 4.3875 16.4078 4.3875C16.5478 4.3875 16.6753 4.41667 16.7903 4.475C16.907 4.53333 17.007 4.61833 17.0903 4.73C17.1753 4.84 17.2403 4.97667 17.2853 5.14C17.332 5.30167 17.3553 5.4875 17.3553 5.6975C17.3553 5.88917 17.3295 6.06667 17.2778 6.23C17.2262 6.39333 17.152 6.535 17.0553 6.655C16.9603 6.775 16.8445 6.86917 16.7078 6.9375C16.5728 7.00417 16.4212 7.0375 16.2528 7.0375C16.1095 7.0375 15.987 7.01583 15.8853 6.9725C15.7837 6.9275 15.6928 6.86583 15.6128 6.7875V7.8375H14.9953V4.435H15.3728C15.4528 4.435 15.5053 4.4725 15.5303 4.5475L15.5803 4.785ZM18.4546 6.335C18.5246 6.42 18.6005 6.48 18.6821 6.515C18.7655 6.55 18.8555 6.5675 18.9521 6.5675C19.0455 6.5675 19.1296 6.55 19.2046 6.515C19.2796 6.48 19.343 6.42667 19.3946 6.355C19.448 6.28333 19.4888 6.19333 19.5171 6.085C19.5455 5.975 19.5596 5.84583 19.5596 5.6975C19.5596 5.5475 19.5471 5.42083 19.5221 5.3175C19.4988 5.2125 19.4646 5.1275 19.4196 5.0625C19.3746 4.9975 19.3196 4.95 19.2546 4.92C19.1913 4.89 19.1188 4.875 19.0371 4.875C18.9088 4.875 18.7996 4.9025 18.7096 4.9575C18.6196 5.01083 18.5346 5.08667 18.4546 5.185V6.335ZM18.4221 4.785C18.5271 4.66667 18.6463 4.57083 18.7796 4.4975C18.913 4.42417 19.0696 4.3875 19.2496 4.3875C19.3896 4.3875 19.5171 4.41667 19.6321 4.475C19.7488 4.53333 19.8488 4.61833 19.9321 4.73C20.0171 4.84 20.0821 4.97667 20.1271 5.14C20.1738 5.30167 20.1971 5.4875 20.1971 5.6975C20.1971 5.88917 20.1713 6.06667 20.1196 6.23C20.068 6.39333 19.9938 6.535 19.8971 6.655C19.8021 6.775 19.6863 6.86917 19.5496 6.9375C19.4146 7.00417 19.263 7.0375 19.0946 7.0375C18.9513 7.0375 18.8288 7.01583 18.7271 6.9725C18.6255 6.9275 18.5346 6.86583 18.4546 6.7875V7.8375H17.8371V4.435H18.2146C18.2946 4.435 18.3471 4.4725 18.3721 4.5475L18.4221 4.785ZM23.9172 4.0425C23.8972 4.0775 23.8756 4.10333 23.8522 4.12C23.8306 4.135 23.8031 4.1425 23.7697 4.1425C23.7347 4.1425 23.6964 4.13 23.6547 4.105C23.6147 4.07833 23.5664 4.04917 23.5097 4.0175C23.4531 3.98583 23.3864 3.9575 23.3097 3.9325C23.2347 3.90583 23.1456 3.8925 23.0422 3.8925C22.9489 3.8925 22.8672 3.90417 22.7972 3.9275C22.7272 3.94917 22.6681 3.98 22.6197 4.02C22.5731 4.06 22.5381 4.10833 22.5147 4.165C22.4914 4.22 22.4797 4.28083 22.4797 4.3475C22.4797 4.4325 22.5031 4.50333 22.5497 4.56C22.5981 4.61667 22.6614 4.665 22.7397 4.705C22.8181 4.745 22.9072 4.78083 23.0072 4.8125C23.1072 4.84417 23.2097 4.87833 23.3147 4.915C23.4197 4.95 23.5222 4.99167 23.6222 5.04C23.7222 5.08667 23.8114 5.14667 23.8897 5.22C23.9681 5.29167 24.0306 5.38 24.0772 5.485C24.1256 5.59 24.1497 5.7175 24.1497 5.8675C24.1497 6.03083 24.1214 6.18417 24.0647 6.3275C24.0097 6.46917 23.9281 6.59333 23.8197 6.7C23.7131 6.805 23.5822 6.88833 23.4272 6.95C23.2722 7.01 23.0947 7.04 22.8947 7.04C22.7797 7.04 22.6664 7.02833 22.5547 7.005C22.4431 6.98333 22.3356 6.95167 22.2322 6.91C22.1306 6.86833 22.0347 6.81833 21.9447 6.76C21.8547 6.70167 21.7747 6.63667 21.7047 6.565L21.9022 6.2425C21.9189 6.21917 21.9406 6.2 21.9672 6.185C21.9939 6.16833 22.0222 6.16 22.0522 6.16C22.0939 6.16 22.1389 6.1775 22.1872 6.2125C22.2356 6.24583 22.2931 6.28333 22.3597 6.325C22.4264 6.36667 22.5039 6.405 22.5922 6.44C22.6822 6.47333 22.7897 6.49 22.9147 6.49C23.1064 6.49 23.2547 6.445 23.3597 6.355C23.4647 6.26333 23.5172 6.1325 23.5172 5.9625C23.5172 5.8675 23.4931 5.79 23.4447 5.73C23.3981 5.67 23.3356 5.62 23.2572 5.58C23.1789 5.53833 23.0897 5.50333 22.9897 5.475C22.8897 5.44667 22.7881 5.41583 22.6847 5.3825C22.5814 5.34917 22.4797 5.30917 22.3797 5.2625C22.2797 5.21583 22.1906 5.155 22.1122 5.08C22.0339 5.005 21.9706 4.91167 21.9222 4.8C21.8756 4.68667 21.8522 4.5475 21.8522 4.3825C21.8522 4.25083 21.8781 4.1225 21.9297 3.9975C21.9831 3.8725 22.0597 3.76167 22.1597 3.665C22.2597 3.56833 22.3831 3.49083 22.5297 3.4325C22.6764 3.37417 22.8447 3.345 23.0347 3.345C23.2481 3.345 23.4447 3.37833 23.6247 3.445C23.8047 3.51167 23.9581 3.605 24.0847 3.725L23.9172 4.0425ZM25.3816 7.04C25.1582 7.04 24.9866 6.9775 24.8666 6.8525C24.7482 6.72583 24.6891 6.55167 24.6891 6.33V4.8975H24.4266C24.3932 4.8975 24.3649 4.88667 24.3416 4.865C24.3182 4.84333 24.3066 4.81083 24.3066 4.7675V4.5225L24.7191 4.455L24.8491 3.755C24.8574 3.72167 24.8732 3.69583 24.8966 3.6775C24.9199 3.65917 24.9499 3.65 24.9866 3.65H25.3066V4.4575H25.9916V4.8975H25.3066V6.2875C25.3066 6.3675 25.3257 6.43 25.3641 6.475C25.4041 6.52 25.4582 6.5425 25.5266 6.5425C25.5649 6.5425 25.5966 6.53833 25.6216 6.53C25.6482 6.52 25.6707 6.51 25.6891 6.5C25.7091 6.49 25.7266 6.48083 25.7416 6.4725C25.7566 6.4625 25.7716 6.4575 25.7866 6.4575C25.8049 6.4575 25.8199 6.4625 25.8316 6.4725C25.8432 6.48083 25.8557 6.49417 25.8691 6.5125L26.0541 6.8125C25.9641 6.8875 25.8607 6.94417 25.7441 6.9825C25.6274 7.02083 25.5066 7.04 25.3816 7.04ZM27.5024 4.395C27.6924 4.395 27.8649 4.42583 28.0199 4.4875C28.1766 4.54917 28.3099 4.63667 28.4199 4.75C28.5316 4.86333 28.6174 5.00167 28.6774 5.165C28.7374 5.32833 28.7674 5.51083 28.7674 5.7125C28.7674 5.91583 28.7374 6.09917 28.6774 6.2625C28.6174 6.42583 28.5316 6.565 28.4199 6.68C28.3099 6.795 28.1766 6.88333 28.0199 6.945C27.8649 7.00667 27.6924 7.0375 27.5024 7.0375C27.3107 7.0375 27.1366 7.00667 26.9799 6.945C26.8232 6.88333 26.6891 6.795 26.5774 6.68C26.4674 6.565 26.3816 6.42583 26.3199 6.2625C26.2599 6.09917 26.2299 5.91583 26.2299 5.7125C26.2299 5.51083 26.2599 5.32833 26.3199 5.165C26.3816 5.00167 26.4674 4.86333 26.5774 4.75C26.6891 4.63667 26.8232 4.54917 26.9799 4.4875C27.1366 4.42583 27.3107 4.395 27.5024 4.395ZM27.5024 6.5625C27.7157 6.5625 27.8732 6.49083 27.9749 6.3475C28.0782 6.20417 28.1299 5.99417 28.1299 5.7175C28.1299 5.44083 28.0782 5.23 27.9749 5.085C27.8732 4.94 27.7157 4.8675 27.5024 4.8675C27.2857 4.8675 27.1249 4.94083 27.0199 5.0875C26.9166 5.2325 26.8649 5.4425 26.8649 5.7175C26.8649 5.9925 26.9166 6.2025 27.0199 6.3475C27.1249 6.49083 27.2857 6.5625 27.5024 6.5625ZM29.821 4.88C29.901 4.72667 29.996 4.60667 30.106 4.52C30.216 4.43167 30.346 4.3875 30.496 4.3875C30.6143 4.3875 30.7093 4.41333 30.781 4.465L30.741 4.9275C30.7327 4.9575 30.7202 4.97917 30.7035 4.9925C30.6885 5.00417 30.6677 5.01 30.641 5.01C30.616 5.01 30.5785 5.00583 30.5285 4.9975C30.4802 4.98917 30.4327 4.985 30.386 4.985C30.3177 4.985 30.2568 4.995 30.2035 5.015C30.1502 5.035 30.1018 5.06417 30.0585 5.1025C30.0168 5.13917 29.9793 5.18417 29.946 5.2375C29.9143 5.29083 29.8843 5.35167 29.856 5.42V7H29.2385V4.435H29.601C29.6643 4.435 29.7085 4.44667 29.7335 4.47C29.7585 4.49167 29.7752 4.53167 29.7835 4.59L29.821 4.88ZM32.683 5.4225C32.683 5.3425 32.6713 5.2675 32.648 5.1975C32.6263 5.12583 32.593 5.06333 32.548 5.01C32.503 4.95667 32.4455 4.915 32.3755 4.885C32.3072 4.85333 32.2272 4.8375 32.1355 4.8375C31.9572 4.8375 31.8163 4.88833 31.713 4.99C31.6113 5.09167 31.5463 5.23583 31.518 5.4225H32.683ZM31.5055 5.795C31.5155 5.92667 31.5388 6.04083 31.5755 6.1375C31.6122 6.2325 31.6605 6.31167 31.7205 6.375C31.7805 6.43667 31.8513 6.48333 31.933 6.515C32.0163 6.545 32.108 6.56 32.208 6.56C32.308 6.56 32.3938 6.54833 32.4655 6.525C32.5388 6.50167 32.6022 6.47583 32.6555 6.4475C32.7105 6.41917 32.758 6.39333 32.798 6.37C32.8397 6.34667 32.8797 6.335 32.918 6.335C32.9697 6.335 33.008 6.35417 33.033 6.3925L33.2105 6.6175C33.1422 6.6975 33.0655 6.765 32.9805 6.82C32.8955 6.87333 32.8063 6.91667 32.713 6.95C32.6213 6.98167 32.5272 7.00417 32.4305 7.0175C32.3355 7.03083 32.243 7.0375 32.153 7.0375C31.9747 7.0375 31.8088 7.00833 31.6555 6.95C31.5022 6.89 31.3688 6.8025 31.2555 6.6875C31.1422 6.57083 31.053 6.4275 30.988 6.2575C30.923 6.08583 30.8905 5.8875 30.8905 5.6625C30.8905 5.4875 30.9188 5.32333 30.9755 5.17C31.0322 5.015 31.113 4.88083 31.218 4.7675C31.3247 4.6525 31.4538 4.56167 31.6055 4.495C31.7588 4.42833 31.9313 4.395 32.123 4.395C32.2847 4.395 32.4338 4.42083 32.5705 4.4725C32.7072 4.52417 32.8247 4.6 32.923 4.7C33.0213 4.79833 33.098 4.92 33.153 5.065C33.2097 5.20833 33.238 5.3725 33.238 5.5575C33.238 5.65083 33.228 5.71417 33.208 5.7475C33.188 5.77917 33.1497 5.795 33.093 5.795H31.5055Z" fill="#808285"/>
<path d="M6.34666 2.41936C6.3233 2.4196 6.30011 2.41547 6.27842 2.40719C6.25673 2.39891 6.23698 2.38665 6.22028 2.3711C6.20357 2.35556 6.19026 2.33705 6.18108 2.31661C6.17191 2.29618 6.16705 2.27423 6.1668 2.25201C6.1668 1.60449 6.73084 1.08009 7.42534 1.08009C7.44872 1.07979 7.47194 1.08389 7.49365 1.09215C7.51537 1.10041 7.53515 1.11266 7.55186 1.12822C7.56858 1.14377 7.58189 1.16231 7.59105 1.18277C7.6002 1.20323 7.60501 1.22521 7.6052 1.24745C7.6052 1.89496 7.04164 2.41936 6.34666 2.41936ZM8.9726 5.94469C9.04215 5.99303 9.06469 6.08149 9.02536 6.15354C8.39226 7.33275 7.88721 7.92008 7.42582 7.92008C7.21094 7.92008 6.99991 7.85533 6.79415 7.72947C6.64647 7.63933 6.47546 7.58974 6.3 7.5862C6.12454 7.58266 5.95146 7.6253 5.79989 7.70941C5.55049 7.84849 5.31307 7.92008 5.08765 7.92008C4.40898 7.92008 3.28906 5.97433 3.28906 4.90684C3.28906 3.76684 3.93128 2.89771 4.90779 2.89771C5.36727 2.89771 5.76392 2.96063 6.09726 3.08877C6.23827 3.14258 6.39798 3.13893 6.53563 3.07737C6.80614 2.95607 7.16298 2.89771 7.6052 2.89771C8.14573 2.89771 8.6172 3.1485 9.00857 3.63414C9.02273 3.65166 9.03305 3.67169 9.03891 3.69306C9.04478 3.71444 9.04607 3.73671 9.04271 3.75857C9.03936 3.78042 9.03143 3.80142 9.01938 3.8203C9.00734 3.83919 8.99143 3.85559 8.9726 3.86853C8.53567 4.17405 8.32511 4.5165 8.32511 4.90684C8.32511 5.29672 8.53567 5.63963 8.9726 5.94469Z" fill="black"/>
</svg>
