<svg width="100" height="100" viewBox="0 0 100 100" fill="none" xmlns="http://www.w3.org/2000/svg">
<g filter="url(#filter0_d_163_751)">
<path d="M15 19C15 14.5817 18.5817 11 23 11H77C81.4183 11 85 14.5817 85 19V73C85 77.4183 81.4183 81 77 81H23C18.5817 81 15 77.4183 15 73V19Z" fill="white"/>
</g>
<g clip-path="url(#clip0_163_751)">
<path d="M41.0919 49.3378L39.978 53.4961L35.9068 53.5822C34.6901 51.3255 34 48.7436 34 45.9999C34 43.3467 34.6453 40.8447 35.789 38.6416H35.7899L39.4144 39.3061L41.0021 42.9089C40.6698 43.8777 40.4887 44.9177 40.4887 45.9999C40.4888 47.1743 40.7016 48.2997 41.0919 49.3378Z" fill="#FBBB00"/>
<path d="M65.7205 43.011C65.9042 43.9789 66.0001 44.9784 66.0001 46C66.0001 47.1455 65.8796 48.2629 65.6502 49.3407C64.8713 53.0084 62.8361 56.211 60.0168 58.4774L60.0159 58.4765L55.4507 58.2436L54.8046 54.2101C56.6753 53.113 58.1373 51.396 58.9074 49.3407H50.3518V43.011H59.0322H65.7205Z" fill="#518EF8"/>
<path d="M60.016 58.4763L60.0169 58.4772C57.2749 60.6811 53.7918 61.9998 50.0002 61.9998C43.907 61.9998 38.6094 58.5941 35.907 53.5823L41.092 49.3379C42.4432 52.944 45.9219 55.5111 50.0002 55.5111C51.7531 55.5111 53.3954 55.0372 54.8045 54.21L60.016 58.4763Z" fill="#28B446"/>
<path d="M60.2129 33.6835L55.0296 37.927C53.5712 37.0154 51.8472 36.4887 50.0002 36.4887C45.8296 36.4887 42.2859 39.1736 41.0024 42.909L35.7901 38.6418H35.7892C38.4521 33.5077 43.8164 30 50.0002 30C53.8824 30 57.4419 31.3829 60.2129 33.6835Z" fill="#F14336"/>
</g>
<defs>
<filter id="filter0_d_163_751" x="0" y="0" width="100" height="100" filterUnits="userSpaceOnUse" color-interpolation-filters="sRGB">
<feFlood flood-opacity="0" result="BackgroundImageFix"/>
<feColorMatrix in="SourceAlpha" type="matrix" values="0 0 0 0 0 0 0 0 0 0 0 0 0 0 0 0 0 0 127 0" result="hardAlpha"/>
<feOffset dy="4"/>
<feGaussianBlur stdDeviation="7.5"/>
<feComposite in2="hardAlpha" operator="out"/>
<feColorMatrix type="matrix" values="0 0 0 0 0 0 0 0 0 0 0 0 0 0 0 0 0 0 0.11 0"/>
<feBlend mode="normal" in2="BackgroundImageFix" result="effect1_dropShadow_163_751"/>
<feBlend mode="normal" in="SourceGraphic" in2="effect1_dropShadow_163_751" result="shape"/>
</filter>
<clipPath id="clip0_163_751">
<path d="M34 38C34 33.5817 37.5817 30 42 30H58C62.4183 30 66 33.5817 66 38V54C66 58.4183 62.4183 62 58 62H42C37.5817 62 34 58.4183 34 54V38Z" fill="white"/>
</clipPath>
</defs>
</svg>
