<svg width="37" height="9" viewBox="0 0 37 9" fill="none" xmlns="http://www.w3.org/2000/svg">
<rect width="37" height="9" rx="3" fill="#D9D9D9"/>
<path d="M12.7253 5.2025C12.8487 5.2025 12.9562 5.1875 13.0478 5.1575C13.1395 5.12583 13.2153 5.08167 13.2753 5.025C13.337 4.96667 13.3828 4.89667 13.4128 4.815C13.4428 4.73167 13.4578 4.63917 13.4578 4.5375C13.4578 4.44083 13.4428 4.35333 13.4128 4.275C13.3828 4.19667 13.3378 4.13 13.2778 4.075C13.2178 4.02 13.142 3.97833 13.0503 3.95C12.9587 3.92 12.8503 3.905 12.7253 3.905H12.2228V5.2025H12.7253ZM12.7253 3.385C12.967 3.385 13.1762 3.41333 13.3528 3.47C13.5295 3.52667 13.6753 3.60583 13.7903 3.7075C13.9053 3.80917 13.9903 3.93083 14.0453 4.0725C14.102 4.21417 14.1303 4.36917 14.1303 4.5375C14.1303 4.7125 14.1012 4.87333 14.0428 5.02C13.9845 5.165 13.897 5.29 13.7803 5.395C13.6637 5.5 13.517 5.58167 13.3403 5.64C13.1653 5.69833 12.9603 5.7275 12.7253 5.7275H12.2228V7H11.5503V3.385H12.7253ZM15.1638 3.285V7H14.5463V3.285H15.1638ZM17.134 5.905C16.9557 5.91333 16.8057 5.92917 16.684 5.9525C16.5624 5.97417 16.4649 6.0025 16.3915 6.0375C16.3182 6.0725 16.2657 6.11333 16.234 6.16C16.2024 6.20667 16.1865 6.2575 16.1865 6.3125C16.1865 6.42083 16.2182 6.49833 16.2815 6.545C16.3465 6.59167 16.4307 6.615 16.534 6.615C16.6607 6.615 16.7699 6.5925 16.8615 6.5475C16.9549 6.50083 17.0457 6.43083 17.134 6.3375V5.905ZM15.719 4.7925C16.014 4.5225 16.369 4.3875 16.784 4.3875C16.934 4.3875 17.0682 4.4125 17.1865 4.4625C17.3049 4.51083 17.4049 4.57917 17.4865 4.6675C17.5682 4.75417 17.6299 4.85833 17.6715 4.98C17.7149 5.10167 17.7365 5.235 17.7365 5.38V7H17.4565C17.3982 7 17.3532 6.99167 17.3215 6.975C17.2899 6.95667 17.2649 6.92083 17.2465 6.8675L17.1915 6.6825C17.1265 6.74083 17.0632 6.7925 17.0015 6.8375C16.9399 6.88083 16.8757 6.9175 16.809 6.9475C16.7424 6.9775 16.6707 7 16.594 7.015C16.519 7.03167 16.4357 7.04 16.344 7.04C16.2357 7.04 16.1357 7.02583 16.044 6.9975C15.9524 6.9675 15.8732 6.92333 15.8065 6.865C15.7399 6.80667 15.6882 6.73417 15.6515 6.6475C15.6149 6.56083 15.5965 6.46 15.5965 6.345C15.5965 6.28 15.6074 6.21583 15.629 6.1525C15.6507 6.0875 15.6857 6.02583 15.734 5.9675C15.784 5.90917 15.8482 5.85417 15.9265 5.8025C16.0049 5.75083 16.1007 5.70583 16.214 5.6675C16.329 5.62917 16.4624 5.59833 16.614 5.575C16.7657 5.55 16.939 5.535 17.134 5.53V5.38C17.134 5.20833 17.0974 5.08167 17.024 5C16.9507 4.91667 16.8449 4.875 16.7065 4.875C16.6065 4.875 16.5232 4.88667 16.4565 4.91C16.3915 4.93333 16.334 4.96 16.284 4.99C16.234 5.01833 16.1882 5.04417 16.1465 5.0675C16.1065 5.09083 16.0615 5.1025 16.0115 5.1025C15.9682 5.1025 15.9315 5.09167 15.9015 5.07C15.8715 5.04667 15.8474 5.02 15.829 4.99L15.719 4.7925ZM20.5748 4.435L19.1773 7.705C19.159 7.74833 19.1348 7.78083 19.1048 7.8025C19.0765 7.82583 19.0323 7.8375 18.9723 7.8375H18.5123L18.9923 6.8075L17.9548 4.435H18.4973C18.5457 4.435 18.5832 4.44667 18.6098 4.47C18.6382 4.49333 18.659 4.52 18.6723 4.55L19.2173 5.88C19.2357 5.925 19.2507 5.97 19.2623 6.015C19.2757 6.06 19.2882 6.10583 19.2998 6.1525C19.3148 6.10583 19.3298 6.06 19.3448 6.015C19.3598 5.96833 19.3765 5.9225 19.3948 5.8775L19.9098 4.55C19.9232 4.51667 19.9448 4.48917 19.9748 4.4675C20.0065 4.44583 20.0415 4.435 20.0798 4.435H20.5748ZM23.9929 4.0425C23.9729 4.0775 23.9513 4.10333 23.9279 4.12C23.9063 4.135 23.8788 4.1425 23.8454 4.1425C23.8104 4.1425 23.7721 4.13 23.7304 4.105C23.6904 4.07833 23.6421 4.04917 23.5854 4.0175C23.5288 3.98583 23.4621 3.9575 23.3854 3.9325C23.3104 3.90583 23.2213 3.8925 23.1179 3.8925C23.0246 3.8925 22.9429 3.90417 22.8729 3.9275C22.8029 3.94917 22.7438 3.98 22.6954 4.02C22.6488 4.06 22.6138 4.10833 22.5904 4.165C22.5671 4.22 22.5554 4.28083 22.5554 4.3475C22.5554 4.4325 22.5788 4.50333 22.6254 4.56C22.6738 4.61667 22.7371 4.665 22.8154 4.705C22.8938 4.745 22.9829 4.78083 23.0829 4.8125C23.1829 4.84417 23.2854 4.87833 23.3904 4.915C23.4954 4.95 23.5979 4.99167 23.6979 5.04C23.7979 5.08667 23.8871 5.14667 23.9654 5.22C24.0438 5.29167 24.1063 5.38 24.1529 5.485C24.2013 5.59 24.2254 5.7175 24.2254 5.8675C24.2254 6.03083 24.1971 6.18417 24.1404 6.3275C24.0854 6.46917 24.0038 6.59333 23.8954 6.7C23.7888 6.805 23.6579 6.88833 23.5029 6.95C23.3479 7.01 23.1704 7.04 22.9704 7.04C22.8554 7.04 22.7421 7.02833 22.6304 7.005C22.5188 6.98333 22.4113 6.95167 22.3079 6.91C22.2063 6.86833 22.1104 6.81833 22.0204 6.76C21.9304 6.70167 21.8504 6.63667 21.7804 6.565L21.9779 6.2425C21.9946 6.21917 22.0163 6.2 22.0429 6.185C22.0696 6.16833 22.0979 6.16 22.1279 6.16C22.1696 6.16 22.2146 6.1775 22.2629 6.2125C22.3113 6.24583 22.3688 6.28333 22.4354 6.325C22.5021 6.36667 22.5796 6.405 22.6679 6.44C22.7579 6.47333 22.8654 6.49 22.9904 6.49C23.1821 6.49 23.3304 6.445 23.4354 6.355C23.5404 6.26333 23.5929 6.1325 23.5929 5.9625C23.5929 5.8675 23.5688 5.79 23.5204 5.73C23.4738 5.67 23.4113 5.62 23.3329 5.58C23.2546 5.53833 23.1654 5.50333 23.0654 5.475C22.9654 5.44667 22.8638 5.41583 22.7604 5.3825C22.6571 5.34917 22.5554 5.30917 22.4554 5.2625C22.3554 5.21583 22.2663 5.155 22.1879 5.08C22.1096 5.005 22.0463 4.91167 21.9979 4.8C21.9513 4.68667 21.9279 4.5475 21.9279 4.3825C21.9279 4.25083 21.9538 4.1225 22.0054 3.9975C22.0588 3.8725 22.1354 3.76167 22.2354 3.665C22.3354 3.56833 22.4588 3.49083 22.6054 3.4325C22.7521 3.37417 22.9204 3.345 23.1104 3.345C23.3238 3.345 23.5204 3.37833 23.7004 3.445C23.8804 3.51167 24.0338 3.605 24.1604 3.725L23.9929 4.0425ZM25.4573 7.04C25.2339 7.04 25.0623 6.9775 24.9423 6.8525C24.8239 6.72583 24.7648 6.55167 24.7648 6.33V4.8975H24.5023C24.4689 4.8975 24.4406 4.88667 24.4173 4.865C24.3939 4.84333 24.3823 4.81083 24.3823 4.7675V4.5225L24.7948 4.455L24.9248 3.755C24.9331 3.72167 24.9489 3.69583 24.9723 3.6775C24.9956 3.65917 25.0256 3.65 25.0623 3.65H25.3823V4.4575H26.0673V4.8975H25.3823V6.2875C25.3823 6.3675 25.4014 6.43 25.4398 6.475C25.4798 6.52 25.5339 6.5425 25.6023 6.5425C25.6406 6.5425 25.6723 6.53833 25.6973 6.53C25.7239 6.52 25.7464 6.51 25.7648 6.5C25.7848 6.49 25.8023 6.48083 25.8173 6.4725C25.8323 6.4625 25.8473 6.4575 25.8623 6.4575C25.8806 6.4575 25.8956 6.4625 25.9073 6.4725C25.9189 6.48083 25.9314 6.49417 25.9448 6.5125L26.1298 6.8125C26.0398 6.8875 25.9364 6.94417 25.8198 6.9825C25.7031 7.02083 25.5823 7.04 25.4573 7.04ZM27.5781 4.395C27.7681 4.395 27.9406 4.42583 28.0956 4.4875C28.2523 4.54917 28.3856 4.63667 28.4956 4.75C28.6073 4.86333 28.6931 5.00167 28.7531 5.165C28.8131 5.32833 28.8431 5.51083 28.8431 5.7125C28.8431 5.91583 28.8131 6.09917 28.7531 6.2625C28.6931 6.42583 28.6073 6.565 28.4956 6.68C28.3856 6.795 28.2523 6.88333 28.0956 6.945C27.9406 7.00667 27.7681 7.0375 27.5781 7.0375C27.3864 7.0375 27.2123 7.00667 27.0556 6.945C26.8989 6.88333 26.7648 6.795 26.6531 6.68C26.5431 6.565 26.4573 6.42583 26.3956 6.2625C26.3356 6.09917 26.3056 5.91583 26.3056 5.7125C26.3056 5.51083 26.3356 5.32833 26.3956 5.165C26.4573 5.00167 26.5431 4.86333 26.6531 4.75C26.7648 4.63667 26.8989 4.54917 27.0556 4.4875C27.2123 4.42583 27.3864 4.395 27.5781 4.395ZM27.5781 6.5625C27.7914 6.5625 27.9489 6.49083 28.0506 6.3475C28.1539 6.20417 28.2056 5.99417 28.2056 5.7175C28.2056 5.44083 28.1539 5.23 28.0506 5.085C27.9489 4.94 27.7914 4.8675 27.5781 4.8675C27.3614 4.8675 27.2006 4.94083 27.0956 5.0875C26.9923 5.2325 26.9406 5.4425 26.9406 5.7175C26.9406 5.9925 26.9923 6.2025 27.0956 6.3475C27.2006 6.49083 27.3614 6.5625 27.5781 6.5625ZM29.8967 4.88C29.9767 4.72667 30.0717 4.60667 30.1817 4.52C30.2917 4.43167 30.4217 4.3875 30.5717 4.3875C30.69 4.3875 30.785 4.41333 30.8567 4.465L30.8167 4.9275C30.8083 4.9575 30.7958 4.97917 30.7792 4.9925C30.7642 5.00417 30.7433 5.01 30.7167 5.01C30.6917 5.01 30.6542 5.00583 30.6042 4.9975C30.5558 4.98917 30.5083 4.985 30.4617 4.985C30.3933 4.985 30.3325 4.995 30.2792 5.015C30.2258 5.035 30.1775 5.06417 30.1342 5.1025C30.0925 5.13917 30.055 5.18417 30.0217 5.2375C29.99 5.29083 29.96 5.35167 29.9317 5.42V7H29.3142V4.435H29.6767C29.74 4.435 29.7842 4.44667 29.8092 4.47C29.8342 4.49167 29.8508 4.53167 29.8592 4.59L29.8967 4.88ZM32.7587 5.4225C32.7587 5.3425 32.747 5.2675 32.7237 5.1975C32.702 5.12583 32.6687 5.06333 32.6237 5.01C32.5787 4.95667 32.5212 4.915 32.4512 4.885C32.3828 4.85333 32.3028 4.8375 32.2112 4.8375C32.0328 4.8375 31.892 4.88833 31.7887 4.99C31.687 5.09167 31.622 5.23583 31.5937 5.4225H32.7587ZM31.5812 5.795C31.5912 5.92667 31.6145 6.04083 31.6512 6.1375C31.6878 6.2325 31.7362 6.31167 31.7962 6.375C31.8562 6.43667 31.927 6.48333 32.0087 6.515C32.092 6.545 32.1837 6.56 32.2837 6.56C32.3837 6.56 32.4695 6.54833 32.5412 6.525C32.6145 6.50167 32.6778 6.47583 32.7312 6.4475C32.7862 6.41917 32.8337 6.39333 32.8737 6.37C32.9153 6.34667 32.9553 6.335 32.9937 6.335C33.0453 6.335 33.0837 6.35417 33.1087 6.3925L33.2862 6.6175C33.2178 6.6975 33.1412 6.765 33.0562 6.82C32.9712 6.87333 32.882 6.91667 32.7887 6.95C32.697 6.98167 32.6028 7.00417 32.5062 7.0175C32.4112 7.03083 32.3187 7.0375 32.2287 7.0375C32.0503 7.0375 31.8845 7.00833 31.7312 6.95C31.5778 6.89 31.4445 6.8025 31.3312 6.6875C31.2178 6.57083 31.1287 6.4275 31.0637 6.2575C30.9987 6.08583 30.9662 5.8875 30.9662 5.6625C30.9662 5.4875 30.9945 5.32333 31.0512 5.17C31.1078 5.015 31.1887 4.88083 31.2937 4.7675C31.4003 4.6525 31.5295 4.56167 31.6812 4.495C31.8345 4.42833 32.007 4.395 32.1987 4.395C32.3603 4.395 32.5095 4.42083 32.6462 4.4725C32.7828 4.52417 32.9003 4.6 32.9987 4.7C33.097 4.79833 33.1737 4.92 33.2287 5.065C33.2853 5.20833 33.3137 5.3725 33.3137 5.5575C33.3137 5.65083 33.3037 5.71417 33.2837 5.7475C33.2637 5.77917 33.2253 5.795 33.1687 5.795H31.5812Z" fill="#808285"/>
<g clip-path="url(#clip0_242_741)">
<path d="M6.01638 4.91534C6.53491 4.52518 6.92805 4.22793 6.96193 4.20484C7.07029 4.12583 7.18225 3.91679 6.96193 3.75444C6.89079 3.70339 6.50779 3.41534 6.01638 3.04395L5.33521 3.98656L6.01635 4.91534H6.01638Z" fill="#FFD900"/>
<path d="M5.33506 3.98682L3.16602 6.98219C3.21689 6.99144 3.27437 6.97293 3.34217 6.92188C3.48445 6.81521 4.99265 5.6866 6.01628 4.9158L5.33506 3.98682Z" fill="#F43249"/>
<path d="M5.33522 3.98665L6.01637 3.04862C6.01637 3.04862 3.4949 1.16314 3.3423 1.05189C3.28489 1.00511 3.22047 0.991276 3.16284 1.00511L5.33522 3.9866V3.98665Z" fill="#00EE76"/>
<path d="M5.33511 3.98686L3.16269 1.00537C3.07452 1.03329 3 1.14002 3 1.3582V6.62925C3 6.82908 3.05767 6.97298 3.16603 6.98681L5.33511 3.98686Z" fill="#00D3FF"/>
</g>
<defs>
<clipPath id="clip0_242_741">
<rect width="19" height="6" fill="white" transform="translate(3 1)"/>
</clipPath>
</defs>
</svg>
